<?xml version="1.0" standalone="no"?>
<!DOCTYPE svg PUBLIC "-//W3C//DTD SVG 20010904//EN"
 "http://www.w3.org/TR/2001/REC-SVG-20010904/DTD/svg10.dtd">
<svg version="1.0" xmlns="http://www.w3.org/2000/svg"
 width="500.000000pt" height="500.000000pt" viewBox="0 0 500.000000 500.000000"
 preserveAspectRatio="xMidYMid meet">

<g transform="translate(0.000000,500.000000) scale(0.100000,-0.100000)"
fill="#000000" stroke="none">
<path d="M3730 4427 c0 -19 -33 -47 -56 -47 -13 0 -8 -6 16 -18 20 -10 37 -27
41 -42 l6 -25 12 28 c6 16 25 34 43 42 25 11 28 14 12 15 -22 0 -54 29 -54 48
0 7 -4 12 -10 12 -5 0 -10 -6 -10 -13z"/>
<path d="M4273 4306 c-18 -105 -67 -143 -188 -147 -33 -1 -27 -3 33 -14 40 -7
84 -21 98 -30 31 -20 53 -70 62 -139 l6 -51 8 58 c14 109 44 140 153 160 l70
13 -63 7 c-112 12 -146 45 -160 155 l-7 57 -12 -69z"/>
<path d="M1128 3307 l-1006 -972 231 -5 232 -5 3 -1043 2 -1042 1148 1 c1042
1 1144 2 1110 16 -46 19 -44 0 -23 344 9 133 14 243 12 245 -2 2 -30 -111 -62
-251 -32 -140 -62 -260 -66 -267 -5 -8 -17 -8 -46 3 -31 12 -38 20 -36 40 1
13 14 127 28 252 14 126 25 233 23 238 -2 5 -28 -96 -57 -225 -30 -130 -58
-241 -62 -247 -5 -8 -16 -8 -42 0 -32 11 -36 16 -32 39 3 15 14 126 25 247 11
121 22 238 25 260 5 42 -27 -82 -89 -347 l-37 -157 -37 13 c-43 15 -42 -24 -7
341 13 132 23 241 21 242 -1 1 -29 -115 -61 -258 -33 -143 -63 -265 -66 -271
-4 -6 -21 -3 -46 9 l-40 18 63 210 c35 116 63 212 63 215 1 3 -44 -86 -99
-198 l-99 -203 -38 16 c-20 9 -39 18 -41 20 -2 2 49 98 114 212 152 269 160
283 140 258 -9 -11 -88 -114 -174 -228 -152 -202 -158 -208 -187 -202 -16 3
-33 9 -38 14 -7 7 127 255 250 464 2 4 2 7 0 7 -3 0 -80 -99 -172 -219 -165
-217 -167 -220 -193 -209 -15 7 -31 15 -35 19 -5 4 48 108 118 230 70 123 130
229 133 234 15 29 -29 -30 -163 -215 -82 -113 -152 -209 -156 -214 -8 -9 -75
10 -84 24 -3 5 49 105 116 222 66 117 130 229 141 248 27 49 14 33 -186 -213
-194 -238 -174 -224 -259 -188 l-38 16 142 195 c78 107 158 218 178 245 37 52
6 25 -339 -289 -58 -52 -109 -96 -115 -96 -21 0 -166 63 -158 70 20 18 1159
927 1170 933 6 4 182 -60 390 -142 290 -114 379 -153 382 -167 2 -11 50 -318
106 -684 l101 -665 247 -3 247 -2 0 1045 0 1045 232 2 232 3 -444 428 c-244
235 -447 424 -450 420 -4 -5 -88 -217 -188 -473 l-181 -466 38 -244 c20 -135
34 -246 30 -248 -13 -5 -620 235 -618 244 2 5 88 78 193 163 l190 153 198 507
c109 278 197 509 195 512 -4 12 -978 949 -985 949 -4 -1 -460 -438 -1014 -973z
m952 -207 l0 -210 -205 0 -205 0 0 210 0 210 205 0 205 0 0 -210z m535 0 l0
-205 -205 0 -205 0 -3 195 c-1 107 0 200 3 207 3 11 48 13 207 11 l203 -3 0
-205z m-535 -520 l0 -210 -205 0 -205 0 0 210 0 210 205 0 205 0 0 -210z m535
0 l0 -205 -205 0 -205 0 -3 195 c-1 107 0 200 3 207 3 11 48 13 207 11 l203
-3 0 -205z"/>
<path d="M3422 3936 c-6 -15 -26 -33 -43 -40 l-31 -13 31 -6 c22 -5 35 -15 42
-34 8 -20 13 -24 16 -13 10 27 36 50 57 50 16 0 13 4 -14 18 -20 10 -37 27
-40 41 l-5 24 -13 -27z"/>
<path d="M4616 3671 c-15 -112 -47 -146 -146 -158 -54 -6 -58 -23 -7 -24 48
-1 99 -22 119 -50 10 -13 24 -53 31 -89 l12 -65 6 51 c12 99 53 143 138 152
28 2 51 8 51 12 0 4 -24 10 -52 13 -89 11 -122 49 -136 154 l-8 58 -8 -54z"/>
<path d="M3726 3610 c-17 -190 -81 -248 -299 -269 -79 -8 -78 -9 71 -31 161
-23 212 -86 229 -278 3 -40 7 -71 9 -70 1 2 7 40 14 86 25 186 72 239 232 262
149 23 150 23 64 31 -150 15 -219 47 -255 117 -22 44 -41 128 -41 182 0 66
-17 45 -24 -30z"/>
<path d="M2962 539 c-18 -156 -33 -287 -32 -291 0 -5 27 -8 61 -8 l60 0 -5 43
c-3 23 -15 150 -26 282 -12 132 -22 244 -23 249 -2 4 -17 -119 -35 -275z"/>
</g>
</svg>
